<svg width="16" height="13" fill="none" xmlns="http://www.w3.org/2000/svg"><path fill-rule="evenodd" clip-rule="evenodd" d="M1.812 11.627a.75.75 0 001.061 1.06l1.624-1.623c1.018.558 2.192.937 3.503.937 5 0 8-5.5 8-5.5s-1.153-2.114-3.22-3.72l1.407-1.407a.75.75 0 00-1.06-1.06L1.811 11.626zm9.135-7.014l-.73.731a2.5 2.5 0 01-3.373 3.373l-.731.731a3.5 3.5 0 004.834-4.835zM8.063 7.5a1 1 0 00.936-.936l-.936.936zM8 1c.908 0 1.75.181 2.521.478L8.886 3.115a3.499 3.499 0 00-4.272 4.272l-2.171 2.17C.866 8.089 0 6.502 0 6.502S3 1 8 1zM6.232 4.733A2.5 2.5 0 018 4L5.5 6.5a2.5 2.5 0 01.732-1.768zm-4.455 1.77v-.004a12.634 12.634 0 011.581-1.856 4.999 4.999 0 000 3.716 12.634 12.634 0 01-1.58-1.856zM13 6.5a5 5 0 00-.358-1.858 12.627 12.627 0 011.58 1.856l.002.002-.002.001a12.627 12.627 0 01-1.58 1.857A5 5 0 0013 6.5z" fill="#8896BB"/></svg>