<svg width="20" height="20" fill="none" xmlns="http://www.w3.org/2000/svg"><path fill-rule="evenodd" clip-rule="evenodd" d="M8.5 3a1.5 1.5 0 11-3 0 1.5 1.5 0 013 0zm1.407.744a3.001 3.001 0 01-5.814 0A.756.756 0 014 3.75H1a.75.75 0 010-1.5h3c.032 0 .063.002.093.006a3.001 3.001 0 015.814 0A.758.758 0 0110 2.25h9a.75.75 0 010 1.5h-9a.758.758 0 01-.093-.006zM1 9.25a.75.75 0 000 1.5h11a.753.753 0 00.093-.006 3.001 3.001 0 005.814 0c.03.004.061.006.093.006h1a.75.75 0 000-1.5h-1a.757.757 0 00-.093.006 3.001 3.001 0 00-5.814 0A.757.757 0 0012 9.25H1zm0 7a.75.75 0 000 1.5h1a.752.752 0 00.093-.006 3.001 3.001 0 005.814 0c.03.004.061.006.093.006h11a.75.75 0 000-1.5H8a.752.752 0 00-.093.006 3.001 3.001 0 00-5.814 0A.752.752 0 002 16.25H1zm14-4.75a1.5 1.5 0 100-3 1.5 1.5 0 000 3zM6.5 17a1.5 1.5 0 11-3 0 1.5 1.5 0 013 0z" fill="#8896BB"/></svg>