<svg width="21" height="19" fill="none" xmlns="http://www.w3.org/2000/svg"><path fill-rule="evenodd" clip-rule="evenodd" d="M7.936 11.5a8.81 8.81 0 011.674-1.28C9 10 8.92 10 8 10c-.224 0-.446.005-.666.014C3.226 10.183 0 11.902 0 14v2h6v-1c0-1.5 1.5-3 1.5-3s.132-.195.436-.5zm-3.403 3c.127-.991.604-1.847.969-2.395a8.49 8.49 0 01.313-.437c-1.103.174-2.06.474-2.802.845C1.726 13.157 1.5 13.769 1.5 14v.5h3.033zM8 1.5A2.499 2.499 0 005.5 4c0 1.382 1.118 2.5 2.5 2.5s2.5-1.118 2.5-2.5S9.382 1.5 8 1.5zM8 0C5.79 0 4 1.79 4 4s1.79 4 4 4 4-1.79 4-4-1.79-4-4-4zm8.415 12.135a3.563 3.563 0 010 4.73 5.706 5.706 0 002.431-2.365 5.706 5.706 0 00-2.431-2.365zm-5.33 0A5.706 5.706 0 008.654 14.5a5.706 5.706 0 002.431 2.365 3.563 3.563 0 010-4.73zM7 14.5c1.057-2.633 3.679-4.5 6.75-4.5s5.692 1.867 6.75 4.5c-1.058 2.633-3.679 4.5-6.75 4.5S8.057 17.133 7 14.5zm8.813 0a2.062 2.062 0 10-4.125 0 2.062 2.062 0 004.124 0zm-2.188 0c0-.047.016-.075.033-.092a.122.122 0 01.092-.033c.047 0 .075.016.092.033a.122.122 0 01.033.092.122.122 0 01-.033.092.122.122 0 01-.092.033.122.122 0 01-.092-.033.122.122 0 01-.033-.092zm-1 0c0-.63.495-1.125 1.125-1.125s1.125.495 1.125 1.125-.495 1.125-1.125 1.125-1.125-.495-1.125-1.125z" fill="#6163F9"/></svg>